PathFileType	4	(X/Y/Z)	E:\3-PhD\Data\MocapData\ElaboratedData\012\pre\dynamicElaborations\RunL1\RunL1.trc
DataRate	CameraRate	NumFrames	NumMarkers	Units	OrigDataRate	OrigDataStartFrame	OrigNumFrames
200	200	6	56	mm	200	653	123
Frame#	Time	FHD			LBHD			RBHD			C7			T10			CLAV			LSHO			LUUPA			LMUPA			LDUPA			LLEP			LMEP			LRAD			LUL			LRFIN			RSHO			RUPA1			RMUPA			RDUPA			RLEP			RMEP			RRAD			RUL			RUFIN			LASI			RASI			USACR			LSACR			RSACR			LTHI1			LTHI2			LTHI3			LTHI4			LLFC			LTIB1			LTIB2			LTIB3			LTIB4			LHEE			LMT1			LMT5			LMT2			RTHI			RTHI2			RTHI3			RTHI4			RLFC			RTIB1			RTIB2			RTIB3			RTIB4			RLMAL			RHEE			RMT1			RMT2			RMT5		
		X1	Y1	Z1	X2	Y2	Z2	X3	Y3	Z3	X4	Y4	Z4	X5	Y5	Z5	X6	Y6	Z6	X7	Y7	Z7	X8	Y8	Z8	X9	Y9	Z9	X10	Y10	Z10	X11	Y11	Z11	X12	Y12	Z12	X13	Y13	Z13	X14	Y14	Z14	X15	Y15	Z15	X16	Y16	Z16	X17	Y17	Z17	X18	Y18	Z18	X19	Y19	Z19	X20	Y20	Z20	X21	Y21	Z21	X22	Y22	Z22	X23	Y23	Z23	X24	Y24	Z24	X25	Y25	Z25	X26	Y26	Z26	X27	Y27	Z27	X28	Y28	Z28	X29	Y29	Z29	X30	Y30	Z30	X31	Y31	Z31	X32	Y32	Z32	X33	Y33	Z33	X34	Y34	Z34	X35	Y35	Z35	X36	Y36	Z36	X37	Y37	Z37	X38	Y38	Z38	X39	Y39	Z39	X40	Y40	Z40	X41	Y41	Z41	X42	Y42	Z42	X43	Y43	Z43	X44	Y44	Z44	X45	Y45	Z45	X46	Y46	Z46	X47	Y47	Z47	X48	Y48	Z48	X49	Y49	Z49	X50	Y50	Z50	X51	Y51	Z51	X52	Y52	Z52	X53	Y53	Z53	X54	Y54	Z54	X55	Y55	Z55	X56	Y56	Z56	
653	3.260000	-2152.168744	1679.536158	463.043269	-2313.928450	1718.761806	378.724638	-2288.337001	1695.597492	528.627106	-2410.438037	1547.349663	431.826416	-2584.045071	1244.182830	365.468199	-2315.398293	1411.029855	418.510275	-2315.324303	1538.358178	268.965449	-2444.972935	1395.518070	129.008264	-2428.122367	1348.336282	134.394994	-2482.440871	1339.037465	109.814296	-2511.539813	1256.520173	88.022598	-2566.102752	1257.181260	161.191113	-2386.509667	1047.712694	223.480025	-2403.689592	1012.848298	155.156792	-2325.767331	986.303767	231.206861	-2358.233155	1443.416110	600.987026	-2567.076591	1313.459966	638.015727	-2548.888950	1266.309903	640.491649	-2615.772959	1256.097003	622.976708	-2647.654781	1197.900722	629.208875	-2649.913846	1189.334183	544.921588	-2471.312137	978.136827	606.983646	-2529.393709	937.851896	640.526498	-2432.519017	898.923533	620.793428	-2491.745967	978.140673	240.520333	-2506.033602	994.939429	470.390314	-2647.591350	1116.203803	348.176549	-2663.171930	1086.676530	321.156252	-2667.973106	1091.379952	377.682362	-2607.537688	732.655574	152.051891	-2567.996558	656.022850	150.501839	-2523.089097	656.127488	165.286043	-2595.431110	602.953065	150.483538	-2621.443971	459.184884	164.743707	-2793.460419	425.168334	243.553335	-2829.945220	462.362478	196.714854	-2830.408049	430.447773	233.371716	-2902.615951	448.994574	272.575492	-3049.208814	581.679127	319.762842	-3110.367579	377.040920	327.558562	-3125.585658	412.826359	234.078291	-3112.030955	369.879615	274.299997	-2519.804896	706.926042	501.480207	-2466.662364	672.611489	489.165272	-2432.525347	684.059306	488.999201	-2456.633419	592.837400	470.453028	-2418.197650	483.018852	441.885092	-2409.212995	353.677751	383.736383	-2491.285769	293.959680	424.511877	-2454.388502	279.483709	400.941887	-2461.838453	236.374329	364.824960	-2570.944879	91.527436	361.392509	-2631.441492	55.760328	315.251333	-2404.013761	62.406174	296.144915	-2405.857614	63.724092	340.123919	-2445.603628	43.465961	394.357126	
654	3.265000	-2128.841264	1679.512569	461.884266	-2291.280377	1718.039516	378.399038	-2264.748362	1694.879833	528.207943	-2386.226108	1546.464845	432.273978	-2559.748966	1243.098096	364.789250	-2291.137572	1409.674084	416.833371	-2293.277141	1537.982339	267.428787	-2427.150578	1397.157677	129.372944	-2410.715091	1349.732250	134.060819	-2465.734915	1341.353052	110.453709	-2496.999743	1260.300110	87.701964	-2549.159867	1259.761729	162.751507	-2371.848918	1045.277618	213.105266	-2391.363199	1012.901045	144.101394	-2312.479120	982.227156	217.907541	-2332.250791	1442.251739	599.628444	-2538.738587	1309.766615	637.759987	-2519.777625	1262.993441	640.742902	-2586.141342	1251.602399	624.399208	-2616.687640	1192.043250	630.967066	-2620.599117	1183.952163	546.759889	-2434.821931	977.574485	601.915306	-2490.506214	934.744917	636.688873	-2392.940967	899.691970	614.142428	-2468.231017	975.522899	240.708254	-2483.125991	993.998948	470.621339	-2623.594478	1115.835840	346.847063	-2639.048447	1086.253450	320.009983	-2644.068805	1091.148389	376.374033	-2575.017550	731.262986	151.270864	-2532.463670	656.152221	149.888053	-2487.819022	657.816433	165.624214	-2557.717087	602.096455	149.380331	-2578.724877	457.638705	164.096869	-2749.296573	423.153422	244.176099	-2787.229716	458.494410	194.998693	-2787.458144	427.280333	232.271114	-2860.295403	445.568390	270.350849	-3009.749675	576.930592	315.424032	-3066.490545	371.194635	324.590360	-3080.796526	405.543177	230.459017	-3066.913776	363.288738	271.440403	-2502.016737	704.641886	500.588415	-2448.857167	669.089787	489.379650	-2415.430698	679.559130	488.222264	-2441.583325	589.189520	469.275853	-2405.576279	478.326717	440.777396	-2400.321623	348.909267	382.566855	-2484.105232	291.882880	423.647608	-2447.790222	276.172951	399.945277	-2456.746450	233.360180	363.669496	-2570.222878	91.937606	360.832103	-2631.430125	56.020206	315.071255	-2403.990105	62.515541	296.128138	-2405.910864	63.670285	340.108276	-2445.719803	43.808073	394.371342	
655	3.270000	-2105.515795	1679.722907	460.713915	-2268.576150	1717.622180	377.992463	-2241.192864	1694.412484	527.690308	-2362.061730	1545.835739	432.588307	-2535.397747	1242.265882	364.282754	-2266.864755	1408.750288	415.081776	-2271.279116	1537.962927	265.877394	-2409.426963	1399.432801	129.715380	-2393.348791	1351.806172	133.395271	-2449.128749	1344.385626	111.014445	-2482.386635	1264.685394	87.387539	-2532.057959	1262.845354	164.225935	-2357.087701	1044.179294	202.921949	-2378.940729	1014.216733	133.453199	-2299.191598	979.614310	205.007015	-2306.152382	1441.624961	598.163696	-2510.366474	1306.804304	637.481737	-2490.694157	1260.371888	641.072389	-2556.339932	1247.873096	625.983704	-2585.651900	1186.994656	632.724021	-2591.173265	1179.304904	548.624588	-2398.255582	978.306505	596.884533	-2451.443494	932.956998	632.677283	-2353.277793	901.876262	607.516436	-2444.663007	973.380701	240.849587	-2460.038802	993.177351	470.825128	-2599.493350	1115.754716	345.749523	-2614.919790	1086.137875	318.973639	-2620.049414	1091.130008	375.276388	-2542.308134	730.645080	150.549419	-2496.703781	657.237436	149.452766	-2452.430562	660.488454	166.301292	-2519.683936	602.251987	148.484630	-2535.625114	457.154072	163.706055	-2704.315380	421.426146	245.402913	-2744.205895	454.904736	193.458334	-2744.218081	424.289241	231.133669	-2817.740941	441.825510	268.120241	-2970.610404	571.034806	311.234011	-3021.879385	364.097241	321.536661	-3035.504885	397.103657	226.800945	-3021.115234	355.575513	268.494862	-2484.699666	702.334576	499.627790	-2431.647258	665.381701	489.570589	-2398.903393	674.730695	487.365672	-2427.408031	585.404106	468.024593	-2394.243237	473.373219	439.735789	-2392.238916	344.121884	381.588904	-2477.687253	289.721819	422.797252	-2441.898547	272.861024	399.094064	-2452.206886	230.357691	362.686017	-2569.631058	92.287925	360.307081	-2631.438261	56.218095	314.900008	-2404.013257	62.754126	296.159709	-2406.002194	63.747666	340.147883	-2445.859100	44.127313	394.371823	
656	3.275000	-2082.183581	1680.176270	459.527865	-2245.799415	1717.522438	377.489543	-2217.665367	1694.210312	527.058953	-2337.986141	1545.449121	432.703251	-2510.982544	1241.660209	363.961304	-2242.581511	1408.265852	413.277442	-2249.323858	1538.320327	264.309970	-2391.828495	1402.389024	130.040209	-2376.069452	1354.604243	132.391145	-2432.649354	1348.184636	111.490540	-2467.688748	1269.666730	87.068410	-2514.779100	1266.423936	165.569857	-2342.146799	1044.415257	193.000913	-2366.336553	1016.749788	123.289504	-2285.805895	978.455433	192.585326	-2279.940653	1441.525563	596.606385	-2481.957519	1304.534369	637.245461	-2461.626445	1258.413042	641.469451	-2526.348830	1244.888209	627.757618	-2554.591552	1182.746511	634.466793	-2561.670081	1175.398238	550.500068	-2361.713127	980.323168	591.922563	-2412.326865	932.514396	628.521489	-2313.653780	905.481872	600.949798	-2420.984051	971.798658	240.943748	-2436.741000	992.452567	470.988573	-2575.283060	1115.920951	344.890899	-2590.772852	1086.296070	318.070798	-2595.914251	1091.296696	374.395731	-2509.487974	730.834877	149.911245	-2460.824629	659.320558	149.203014	-2417.029529	664.163884	167.299561	-2481.449750	603.472850	147.812874	-2492.265842	457.784281	163.556557	-2658.756191	419.980423	247.008497	-2700.937028	451.644411	192.071463	-2700.762989	421.520427	229.928483	-2774.976158	437.799941	265.926259	-2931.770675	563.997217	307.251106	-2976.477067	355.845716	318.492573	-2989.725860	387.616529	223.127221	-2974.657661	346.840262	265.467817	-2467.757765	700.088612	498.647315	-2415.003761	661.599294	489.675768	-2382.863966	669.727064	486.442475	-2413.951203	581.612459	466.779685	-2383.952820	468.354182	438.773022	-2384.867055	339.436646	380.751515	-2471.882657	287.586253	422.003948	-2436.588428	269.647153	398.376088	-2448.137528	227.460399	361.863407	-2569.137510	92.642286	359.836434	-2631.462306	56.404209	314.736618	-2404.057344	63.032451	296.210684	-2406.099603	63.874656	340.216860	-2445.997490	44.395087	394.372582	
657	3.280000	-2058.835201	1680.881271	458.320057	-2222.935885	1717.748054	376.874817	-2194.157788	1694.286637	526.305552	-2314.015596	1545.303540	432.586421	-2486.496329	1241.263225	363.826446	-2218.290122	1408.214147	411.434803	-2227.402305	1539.065808	262.730250	-2374.360771	1406.046091	130.368413	-2358.904818	1358.154106	131.074059	-2416.296160	1352.766097	111.889773	-2452.889101	1275.226141	86.737954	-2497.307625	1270.486029	166.747368	-2326.952768	1045.951786	183.402809	-2353.467310	1020.431480	113.667008	-2272.227541	978.712656	180.701740	-2253.619331	1441.930796	594.969013	-2453.502738	1302.906645	637.104491	-2432.555534	1257.075486	641.919762	-2496.159728	1242.613161	629.732339	-2523.544390	1179.278444	636.186381	-2532.127968	1172.227267	552.376978	-2325.291978	983.585760	587.064036	-2373.271606	933.403404	624.253882	-2274.191253	910.481799	594.477876	-2397.146204	970.833962	240.994295	-2413.236658	991.797235	471.105385	-2550.955222	1116.297628	344.270299	-2566.593629	1086.694931	317.314826	-2571.659085	1091.624265	373.726592	-2476.651721	731.848149	149.383449	-2424.949167	662.418788	149.146092	-2381.734325	668.845383	168.583064	-2443.150738	605.789412	147.378071	-2448.777984	459.563856	163.631576	-2612.947455	418.796430	248.679297	-2657.492711	448.740556	190.814661	-2657.161478	419.004929	228.639323	-2732.010474	433.528221	263.820892	-2893.189523	555.830998	303.520168	-2930.264268	346.546502	315.518415	-2943.459972	377.195526	219.456169	-2927.557152	337.193804	262.355701	-2451.105333	697.980342	497.686726	-2398.893347	657.844842	489.648795	-2367.241112	664.703696	485.472863	-2401.057407	577.938250	465.602768	-2374.450511	463.455904	437.894963	-2378.104827	334.965724	380.011946	-2466.554865	285.572423	421.290385	-2431.740392	266.621649	397.773897	-2444.452916	224.757206	361.182295	-2568.703851	93.071542	359.437822	-2631.495004	56.643872	314.578289	-2404.103713	63.296144	296.262513	-2406.180732	63.998342	340.297846	-2446.122241	44.604259	394.380502	
658	3.285000	-2035.460697	1681.846194	457.082557	-2199.974342	1718.302433	376.134326	-2170.660935	1694.652345	525.425153	-2290.142081	1545.406882	432.233400	-2461.936112	1241.067131	363.868004	-2193.993447	1408.578996	409.557192	-2205.501889	1540.199608	261.147406	-2357.005751	1410.395304	130.735122	-2341.859432	1362.461651	129.497424	-2400.038058	1358.110408	112.230273	-2437.959888	1281.340399	86.393916	-2479.632846	1275.019321	167.732244	-2311.441985	1048.726351	174.176453	-2340.261902	1025.172361	104.625023	-2258.369670	980.321940	169.394014	-2227.196452	1442.811574	593.263783	-2424.991361	1301.866231	637.099578	-2403.460886	1256.311341	642.407068	-2465.798925	1241.001299	631.881826	-2492.542441	1176.562581	637.876505	-2502.588318	1169.775263	554.246622	-2289.083344	988.032838	582.345027	-2334.384557	935.576625	619.906797	-2235.007322	916.818601	588.134359	-2373.121416	970.513913	240.993066	-2389.562775	991.183932	471.175193	-2526.498866	1116.851860	343.882192	-2542.365498	1087.302698	316.714188	-2547.276331	1092.095126	373.256897	-2443.905265	733.680038	148.989386	-2389.208590	666.515437	149.288283	-2346.668543	674.509238	170.099450	-2404.934677	609.200112	147.187523	-2405.298978	462.502005	163.912909	-2567.220594	417.859568	250.123193	-2613.949808	446.199499	189.668389	-2613.473404	416.755973	227.270783	-2688.844400	429.050299	261.857133	-2854.808283	546.556742	300.071658	-2883.286188	336.305448	312.610842	-2896.698777	365.959668	215.798923	-2879.820411	326.755596	259.155524	-2434.671469	696.073477	496.768743	-2383.268741	654.205146	489.470288	-2351.977360	659.802154	484.477465	-2388.589134	574.490181	464.530410	-2365.514906	458.833186	437.102019	-2371.856676	330.805699	379.339610	-2461.589285	283.758911	420.662499	-2427.249189	263.863820	397.266257	-2441.070565	222.329605	360.615541	-2568.286374	93.649618	359.127254	-2631.524926	57.020769	314.423696	-2404.138751	63.516276	296.303404	-2406.229732	64.087932	340.378474	-2446.228140	44.762544	394.393715	
